<svg xmlns="http://www.w3.org/2000/svg" viewBox="0 0 121.9 121.9"><defs><style>.cls-1{fill:#fff;}.cls-2{fill:#25466c;}.cls-3{fill:#58c3e6;}.cls-4{fill:#ffdb06;}</style></defs><g id="Vrstva_2" data-name="Vrstva 2"><g id="Vrstva_1-2" data-name="Vrstva 1"><path class="cls-1" d="M61,121.9A61,61,0,1,1,121.9,61,61,61,0,0,1,61,121.9ZM61,3.63A57.32,57.32,0,1,0,118.27,61,57.39,57.39,0,0,0,61,3.63Z"/><path class="cls-1" d="M60.32,11.38h0A27.84,27.84,0,0,0,32.48,39.22V74.53H88.16V39.22A27.83,27.83,0,0,0,60.32,11.38ZM76.47,60.23h-33V39.28A16.51,16.51,0,0,1,60,22.77h0A16.51,16.51,0,0,1,76.47,39.28Z"/><path class="cls-2" d="M90,76.34H30.66V39.22A29.7,29.7,0,0,1,60.32,9.56h0A29.7,29.7,0,0,1,90,39.22ZM34.3,72.71h52V39.22a26,26,0,0,0-52,0Zm44-10.66H41.63V39.28a18.33,18.33,0,0,1,36.66,0Zm-33-3.64h29.4V39.28a14.7,14.7,0,0,0-29.4,0Z"/><rect class="cls-3" x="23.07" y="49.7" width="76.22" height="49" rx="7.32"/><path class="cls-2" d="M92,100.52H30.42a9.17,9.17,0,0,1-9.16-9.17V57.05a9.17,9.17,0,0,1,9.16-9.16H92a9.17,9.17,0,0,1,9.16,9.16v34.3A9.17,9.17,0,0,1,92,100.52Zm-61.53-49a5.54,5.54,0,0,0-5.53,5.53v34.3a5.54,5.54,0,0,0,5.53,5.53H92a5.53,5.53,0,0,0,5.52-5.53V57.05A5.53,5.53,0,0,0,92,51.52Z"/><path class="cls-4" d="M58.44,77.32a5.26,5.26,0,0,1,3.74-5.74,3.28,3.28,0,0,0,2-3.89,3.36,3.36,0,0,0-3.66-2.49,3.31,3.31,0,0,0-2.9,3.15A2.51,2.51,0,0,1,54.8,71a2.56,2.56,0,0,1-2.2-3.08,8.07,8.07,0,0,1,5.58-7.22,7.9,7.9,0,0,1,8.66,2A8.3,8.3,0,0,1,64.2,76.15c-.68.29-.93.62-.83,1.32a7.5,7.5,0,0,1,0,1.06,2.47,2.47,0,0,1-4.93,0C58.43,78.16,58.44,77.75,58.44,77.32Z"/><path class="cls-4" d="M63.37,86.64a2.47,2.47,0,1,1-2.46-2.57A2.42,2.42,0,0,1,63.37,86.64Z"/><path class="cls-4" d="M81.47,76.4a3.41,3.41,0,0,1,2.43-3.74,2.15,2.15,0,0,0,1.29-2.54A2.19,2.19,0,0,0,82.8,68.5a2.15,2.15,0,0,0-1.89,2,1.63,1.63,0,0,1-1.82,1.71,1.66,1.66,0,0,1-1.43-2,5.27,5.27,0,0,1,3.63-4.71,5.15,5.15,0,0,1,5.65,1.33,5.4,5.4,0,0,1-1.72,8.76c-.44.19-.6.41-.54.86a4.09,4.09,0,0,1,0,.7,1.61,1.61,0,0,1-3.21,0C81.46,76.94,81.47,76.68,81.47,76.4Z"/><path class="cls-4" d="M84.68,82.47a1.61,1.61,0,1,1-1.61-1.67A1.58,1.58,0,0,1,84.68,82.47Z"/><path class="cls-4" d="M36.36,76.4a3.41,3.41,0,0,1,2.43-3.74,2.15,2.15,0,0,0,1.29-2.54,2.19,2.19,0,0,0-2.39-1.62,2.15,2.15,0,0,0-1.89,2A1.63,1.63,0,0,1,34,72.26a1.66,1.66,0,0,1-1.43-2,5.27,5.27,0,0,1,3.63-4.71,5.15,5.15,0,0,1,5.65,1.33,5.4,5.4,0,0,1-1.72,8.76c-.44.19-.6.41-.54.86a4.09,4.09,0,0,1,0,.7,1.61,1.61,0,0,1-3.21,0C36.35,76.94,36.36,76.68,36.36,76.4Z"/><path class="cls-4" d="M39.57,82.47A1.61,1.61,0,1,1,38,80.8,1.58,1.58,0,0,1,39.57,82.47Z"/></g></g></svg>