<svg xmlns="http://www.w3.org/2000/svg" viewBox="0 0 121.88 121.92"><defs><style>.cls-1{fill:#fff;}.cls-2{fill:#58c3e6;}.cls-3{fill:#25466c;}.cls-4{fill:#ffdb06;}</style></defs><g id="Vrstva_2" data-name="Vrstva 2"><g id="Vrstva_1-2" data-name="Vrstva 1"><path class="cls-1" d="M65,121.92H57.15c-.39-.07-.77-.16-1.15-.21-2.62-.39-5.28-.62-7.86-1.17a59.64,59.64,0,0,1-32.71-19A59.5,59.5,0,0,1,1,71.69C.57,69.55.31,67.4,0,65.26V56.69a3.8,3.8,0,0,0,.22-.78A59,59,0,0,1,5.44,35.8,60.83,60.83,0,0,1,72.35,1.07,58.85,58.85,0,0,1,107.9,22.14c11,13.43,15.49,28.85,13.54,46.09a58.62,58.62,0,0,1-12.23,30,59.87,59.87,0,0,1-39.29,23C68.28,121.47,66.64,121.68,65,121.92ZM116.88,71a53.75,53.75,0,0,0,.75-13.66,2.43,2.43,0,0,0-.74-1.6,32.42,32.42,0,0,0-5.76-3.93c-3.7-1.69-6.58-1.39-9.54,1.59a12.2,12.2,0,0,1-4.48,3c-5.58,1.9-10.6.55-15-3.34a10.8,10.8,0,0,1-3.8-9.55,29.16,29.16,0,0,1,2.27-9.29,53.35,53.35,0,0,0,3.84-10.32c1.11-5,1.31-9.89-1.24-14.55A2.71,2.71,0,0,0,82,8.18,54.27,54.27,0,0,0,66.14,4.35,56.91,56.91,0,0,0,41.05,7.79a1.9,1.9,0,0,0-1,1,24.4,24.4,0,0,0-1.22,11.46C39.58,25.82,40.41,31.38,41,37c.5,4.64.51,9.36-1.57,13.65a85.06,85.06,0,0,1-5.52,9.12c-1.74,2.69-3.84,5.17-5.41,8a30.66,30.66,0,0,0-2.59,6.82c-.4,1.45.32,2.17,1.86,2.44a17.58,17.58,0,0,0,10.14-1c4.1-1.77,8.14-3.7,12.18-5.62a1.58,1.58,0,0,0,.61-1.18c0-3.85-.2-7.72.09-11.54.32-4.25-.47-8-3.39-11.15l-.06-.1A2.23,2.23,0,0,1,47,43.78a2.43,2.43,0,0,1,2.43-1.14c6.19,0,12.38,0,18.57,0,2.63,0,3.22.59,3.22,3.21,0,16.55.11,33.09-.08,49.63,0,4.05.52,7.56,3.38,10.51,0,.06.09.13.14.2a2.09,2.09,0,0,1,.35,2.43,2.25,2.25,0,0,1-2.18,1.14H49.09a2.23,2.23,0,0,1-2.16-1.18,2.08,2.08,0,0,1,.33-2.33c1-1.37,2-2.7,2.86-4.1a3.65,3.65,0,0,0,.6-1.83c.05-5.28,0-10.55,0-15.83,0-.37,0-.74-.08-1.36a28.75,28.75,0,0,0-3.6,1.31,47.22,47.22,0,0,1-14.21,4.78A15.27,15.27,0,0,1,21.4,86.88,33.25,33.25,0,0,1,10.57,74.3c-2.39-4.67-3.35-9.77-4.12-14.91-.44-2.93-.86-5.86-1.32-9a54.76,54.76,0,0,0,.24,22.53,56.09,56.09,0,0,0,23.74,35.17A55.49,55.49,0,0,0,54,117.38a54.43,54.43,0,0,0,17-.49c1.74-.33,3.56-.41,5-1.9a32.5,32.5,0,0,0,6.3-9.44,9.86,9.86,0,0,0,.72-7,30.63,30.63,0,0,0-2.34-5.16,11.37,11.37,0,0,1-1.46-5c-.13-3.88,1.93-6.66,4.74-8.87A39.15,39.15,0,0,1,107.43,71C110.55,70.89,113.67,71,116.88,71ZM35.11,10.42c-.16.07-.31.12-.45.19a56.84,56.84,0,0,0-22.36,21A14.94,14.94,0,0,0,10.06,36a49.35,49.35,0,0,0-.6,15.15c.35,3.38,1,6.73,1.47,10.1,1,7.07,3.56,13.44,8.62,18.65,2.31,2.39,4.76,4.56,8.17,5.22,3.12.6,6.1-.14,9.12-.9,4.8-1.22,8.79-4.57,13.85-5.07V74.61c-.48.2-.88.34-1.26.53-2.43,1.17-4.83,2.39-7.27,3.52A25.29,25.29,0,0,1,28,81.2c-4.81-.64-7.08-3.59-6-8.29a26.19,26.19,0,0,1,3-7.31c2-3.36,4.36-6.52,6.68-9.67,3.29-4.48,5.76-9.27,5.44-15-.27-4.66-.79-9.31-1.28-14-.37-3.49-1-7-1.24-10.47A39.07,39.07,0,0,1,35.11,10.42ZM116.73,50c-3.67-17-13-29.83-28.19-38.77.15.71.29,1.12.33,1.53a30.65,30.65,0,0,1,.54,5.53,39.47,39.47,0,0,1-4,15.39,28.79,28.79,0,0,0-2.68,8.2c-.36,2.09-.63,4.21.54,6.14,3,4.94,11.21,7.44,15.9,2.16,3.23-3.63,7.46-4.29,12-2.74A59.82,59.82,0,0,1,116.73,50ZM52.56,105.52h16.8c-2.63-2.09-2.38-4.71-2.38-7.3q0-24.89,0-49.76V46.89H52.73a9.09,9.09,0,0,0,.65,1A7.26,7.26,0,0,1,55,53c-.06,15.08,0,30.16,0,45.24C54.93,100.81,55.18,103.43,52.56,105.52Zm30.35,7.71C96.19,109.8,114.29,89,115.84,75.28a46.14,46.14,0,0,0-15,.71A33.48,33.48,0,0,0,85.89,83.4c-3,2.62-3.33,5.27-1.2,8.61a15.7,15.7,0,0,1,1.13,15.83C85,109.69,83.88,111.44,82.91,113.23Z"/><path class="cls-2" d="M116.88,71c-3.21,0-6.33-.09-9.45,0A39.15,39.15,0,0,0,84,79.62c-2.81,2.21-4.87,5-4.74,8.87a11.37,11.37,0,0,0,1.46,5A30.63,30.63,0,0,1,83,98.6a9.86,9.86,0,0,1-.72,7A32.5,32.5,0,0,1,76,115c-1.42,1.49-3.24,1.57-5,1.9a54.43,54.43,0,0,1-17,.49,55.49,55.49,0,0,1-24.89-9.33A56.09,56.09,0,0,1,5.37,72.88a54.76,54.76,0,0,1-.24-22.53c.46,3.18.88,6.11,1.32,9,.77,5.14,1.73,10.24,4.12,14.91A33.25,33.25,0,0,0,21.4,86.88a15.27,15.27,0,0,0,11.45,2.35,47.22,47.22,0,0,0,14.21-4.78,28.75,28.75,0,0,1,3.6-1.31c0,.62.08,1,.08,1.36,0,5.28,0,10.55,0,15.83a3.65,3.65,0,0,1-.6,1.83c-.9,1.4-1.9,2.73-2.86,4.1a2.08,2.08,0,0,0-.33,2.33,2.23,2.23,0,0,0,2.16,1.18H72.78A2.25,2.25,0,0,0,75,108.63a2.09,2.09,0,0,0-.35-2.43c0-.07-.09-.14-.14-.2-2.86-3-3.43-6.46-3.38-10.51.19-16.54.08-33.08.08-49.63,0-2.62-.59-3.21-3.22-3.21-6.19,0-12.38,0-18.57,0A2.43,2.43,0,0,0,47,43.78a2.23,2.23,0,0,0,.41,2.54l.06.1c2.92,3.17,3.71,6.9,3.39,11.15-.29,3.82-.05,7.69-.09,11.54a1.58,1.58,0,0,1-.61,1.18c-4,1.92-8.08,3.85-12.18,5.62a17.58,17.58,0,0,1-10.14,1c-1.54-.27-2.26-1-1.86-2.44a30.66,30.66,0,0,1,2.59-6.82c1.57-2.78,3.67-5.26,5.41-8a85.06,85.06,0,0,0,5.52-9.12c2.08-4.29,2.07-9,1.57-13.65-.61-5.58-1.44-11.14-2.18-16.71A24.4,24.4,0,0,1,40.06,8.79a1.9,1.9,0,0,1,1-1A56.91,56.91,0,0,1,66.14,4.35,54.27,54.27,0,0,1,82,8.18a2.71,2.71,0,0,1,1.22,1.15c2.55,4.66,2.35,9.55,1.24,14.55A53.35,53.35,0,0,1,80.62,34.2a29.16,29.16,0,0,0-2.27,9.29A10.8,10.8,0,0,0,82.15,53c4.36,3.89,9.38,5.24,15,3.34a12.2,12.2,0,0,0,4.48-3c3-3,5.84-3.28,9.54-1.59a32.42,32.42,0,0,1,5.76,3.93,2.43,2.43,0,0,1,.74,1.6A53.75,53.75,0,0,1,116.88,71Zm-56-56.74a12.19,12.19,0,1,0,12.25,13A12.19,12.19,0,0,0,60.9,14.24Z"/><path class="cls-3" d="M35.11,10.42a39.07,39.07,0,0,0-.53,6.09c.23,3.5.87,7,1.24,10.47.49,4.65,1,9.3,1.28,14,.32,5.72-2.15,10.51-5.44,15C29.34,59.08,27,62.24,25,65.6a26.19,26.19,0,0,0-3,7.31c-1.09,4.7,1.18,7.65,6,8.29a25.29,25.29,0,0,0,14.18-2.54c2.44-1.13,4.84-2.35,7.27-3.52.38-.19.78-.33,1.26-.53v4.54c-5.06.5-9,3.85-13.85,5.07-3,.76-6,1.5-9.12.9-3.41-.66-5.86-2.83-8.17-5.22C14.49,74.69,12,68.32,10.93,61.25c-.49-3.37-1.12-6.72-1.47-10.1A49.35,49.35,0,0,1,10.06,36a14.94,14.94,0,0,1,2.24-4.41,56.84,56.84,0,0,1,22.36-21C34.8,10.54,35,10.49,35.11,10.42Z"/><path class="cls-3" d="M116.73,50a59.82,59.82,0,0,0-5.62-2.56c-4.5-1.55-8.73-.89-12,2.74-4.69,5.28-12.9,2.78-15.9-2.16-1.17-1.93-.9-4.05-.54-6.14a28.79,28.79,0,0,1,2.68-8.2,39.47,39.47,0,0,0,4-15.39,30.65,30.65,0,0,0-.54-5.53c0-.41-.18-.82-.33-1.53C103.7,20.14,113.06,32.92,116.73,50Z"/><path class="cls-4" d="M52.56,105.52c2.62-2.09,2.37-4.71,2.37-7.3,0-15.08,0-30.16,0-45.24a7.26,7.26,0,0,0-1.57-5.06,9.09,9.09,0,0,1-.65-1H67v1.57q0,24.89,0,49.76c0,2.59-.25,5.21,2.38,7.3Z"/><path class="cls-3" d="M82.91,113.23c1-1.79,2.06-3.54,2.91-5.39A15.7,15.7,0,0,0,84.69,92c-2.13-3.34-1.84-6,1.2-8.61A33.48,33.48,0,0,1,100.83,76a46.14,46.14,0,0,1,15-.71C114.29,89,96.19,109.8,82.91,113.23Z"/><path class="cls-1" d="M60.9,14.24a12.19,12.19,0,1,1-.06,24.37,12.19,12.19,0,0,1,.06-24.37Zm8.15,12.1a8.09,8.09,0,1,0-16.17.28,8.09,8.09,0,0,0,16.17-.28Z"/><path class="cls-4" d="M69.05,26.34a8.09,8.09,0,1,1-8.33-8A8.19,8.19,0,0,1,69.05,26.34Z"/></g></g></svg>