<svg xmlns="http://www.w3.org/2000/svg" viewBox="0 0 124.65 121.9"><defs><style>.cls-1{fill:#fff;}.cls-2{fill:#25466c;}.cls-3{fill:#58c3e6;}.cls-4{fill:#ffdb06;}</style></defs><g id="Vrstva_2" data-name="Vrstva 2"><g id="Vrstva_1-2" data-name="Vrstva 1"><path class="cls-1" d="M118.19,64a57.33,57.33,0,1,1-3.52-23l2.81-2.81A61,61,0,1,0,121.9,61c0-.23,0-.47,0-.7Z"/><path class="cls-2" d="M33.59,20.14a5.94,5.94,0,0,1,3-3.93,6.3,6.3,0,0,1,2.45-.66q22.94,0,45.87,0a5.56,5.56,0,0,1,5.52,5.58q0,21.6,0,43.2c0,.15,0,.29,0,.49H86.69V34.58H37.48V87.49H86.6l.11-1.77h3.73c0,.32,0,.63,0,.94v13.69c0,3.23-1.31,5-4.4,6.06a1.07,1.07,0,0,0-.22.15H38.21c-.49-.2-1-.37-1.46-.59a6.23,6.23,0,0,1-3.16-4Zm3.84,10.45H86.66V27.32c0-1.95,0-3.91,0-5.86,0-1.42-.68-2-2.08-2.11-.24,0-.48,0-.71,0H40.22a8.62,8.62,0,0,0-.88,0,1.77,1.77,0,0,0-1.9,1.9C37.4,24.35,37.43,27.42,37.43,30.59ZM86.63,91.5H37.44c0,3.17,0,6.28,0,9.39a1.7,1.7,0,0,0,1.19,1.7,4.67,4.67,0,0,0,1.5.14H83.94a8.63,8.63,0,0,0,.88,0,1.73,1.73,0,0,0,1.8-1.8C86.66,97.79,86.63,94.68,86.63,91.5Z"/><path class="cls-2" d="M54.44,81.93V78.14H86.66c0-1,.07-1.88,0-2.75a2.87,2.87,0,0,1,1-2.43q7.05-7,14.09-14.07l13.82-13.83c1.5-1.5,2.32-1.49,3.82,0l4.33,4.34c1.24,1.25,1.24,2.19,0,3.43Q109.64,66.91,95.56,81a3.49,3.49,0,0,1-2.72,1q-18.61-.06-37.24,0Zm63.09-33.18L91.61,74.69,93.88,77l26-25.95Z"/><path class="cls-3" d="M62,70.48c-3.32,0-6.64.11-9.95,0-3-.13-5.16-2.37-5.21-5.66q-.15-9.68.06-19.37c.07-3.05,2.34-5.17,5.63-5.22,6.45-.11,12.92-.09,19.37.06,3.18.07,5.24,2.47,5.28,5.87.07,6.13,0,12.26,0,18.4a5.57,5.57,0,0,1-4.28,5.79,8.22,8.22,0,0,1-2.11.22c-2.93,0-5.86,0-8.79,0ZM50.65,55.35q0,4.44,0,8.89c0,1.75.72,2.49,2.47,2.49H71c1.69,0,2.42-.75,2.42-2.45q0-8.93,0-17.86c0-1.7-.73-2.45-2.42-2.45H53.13c-1.75,0-2.47.74-2.47,2.49Q50.65,50.92,50.65,55.35Z"/><path class="cls-2" d="M46.88,81.88V78.16h3.71v3.72Z"/><path class="cls-3" d="M37.43,30.59c0-3.17,0-6.24,0-9.32a1.77,1.77,0,0,1,1.9-1.9,8.62,8.62,0,0,1,.88,0H83.86c.23,0,.47,0,.71,0,1.4.08,2.05.69,2.08,2.11,0,1.95,0,3.91,0,5.86v3.27Zm19-7.47v3.73H67.66V23.12Z"/><path class="cls-3" d="M86.63,91.5c0,3.18,0,6.29,0,9.4a1.73,1.73,0,0,1-1.8,1.8,8.63,8.63,0,0,1-.88,0H40.13a4.67,4.67,0,0,1-1.5-.14,1.7,1.7,0,0,1-1.19-1.7c0-3.11,0-6.22,0-9.39ZM56.37,98.94H67.65V95.25H56.37Z"/><path class="cls-3" d="M117.53,48.75l2.31,2.32L93.88,77l-2.27-2.33Z"/><path class="cls-4" d="M50.65,55.35q0-4.44,0-8.89c0-1.75.72-2.49,2.47-2.49H71c1.69,0,2.42.75,2.42,2.45q0,8.92,0,17.86c0,1.7-.73,2.45-2.42,2.45H53.13c-1.75,0-2.47-.74-2.47-2.49Q50.65,59.79,50.65,55.35ZM55,56.76c1.25,1.24,2.44,2.48,3.69,3.65a1.9,1.9,0,0,0,2.92-.06c1-1,2-2,2.95-2.94L69,53,66.2,50.24l-6.27,6.29-2.22-2.46Z"/><path class="cls-2" d="M56.39,23.12H67.66v3.73H56.39Z"/><path class="cls-2" d="M56.37,98.94V95.25H67.65v3.69Z"/><path class="cls-2" d="M55,56.76l2.69-2.69,2.22,2.46,6.27-6.29L69,53l-4.41,4.41c-1,1-1.95,2-2.95,2.94a1.9,1.9,0,0,1-2.92.06C57.46,59.24,56.27,58,55,56.76Z"/></g></g></svg>