<svg xmlns="http://www.w3.org/2000/svg" viewBox="0 0 461.63 649.36"><defs><style>.cls-1{fill:#e9b532;}.cls-2{fill:#1d1d1b;}.cls-3{fill:#f3ca31;}</style></defs><g id="Vrstva_2"><g id="Vrstva_1-2"><path class="cls-1" d="M4.65,543.32c6.75-3.05,14.14-2.78,21.22-4,23.32-3.87,46.54-8.17,69.64-13.12a1132.31,1132.31,0,0,0,130.71-36.08q41-14.07,80.5-31.86A728,728,0,0,0,408,402.93a512.11,512.11,0,0,0,48.64-36.14c1.52-1.28,3.21-2.34,4.83-3.5,0,1.5.16,3,.16,4.49q0,83.21,0,166.42a15.58,15.58,0,0,1-15.8,16q-214.15,0-428.31.06C11.76,550.27,7.9,547.56,4.65,543.32Z"/><path class="cls-2" d="M393.65,239.12h-46c0-27.81-.08-55.63.09-83.44a66.53,66.53,0,0,0-1.29-13.25c-5.66-28.54-19.25-52.4-42-71-19.4-15.84-41.74-23.81-66.25-26C223,44.12,208,46.92,193.7,51.93a113.88,113.88,0,0,0-52.18,37c-16.48,20.59-25.69,43.76-25.8,70.27s0,53.29,0,79.94h-46c0-26.64-.19-53.29.06-79.93A155.77,155.77,0,0,1,94.13,76.28a161.59,161.59,0,0,1,116.26-75C222.83-.45,235.31-.15,247.65.59c16.26,1,32.06,5.33,47.09,11.81a157.53,157.53,0,0,1,35.33,20.66,163.68,163.68,0,0,1,61.38,100.1,116.89,116.89,0,0,1,2.1,21.53C393.78,182.84,393.65,211,393.65,239.12Z"/><path class="cls-3" d="M393.65,239.12q26.44.09,52.9.17c7.11,0,15,7,15,13.71.06,36.77-.06,73.53-.11,110.29-1.62,1.16-3.31,2.22-4.83,3.5A512.11,512.11,0,0,1,408,402.93,728,728,0,0,1,306.72,458.3q-39.57,17.71-80.5,31.86A1132.31,1132.31,0,0,1,95.51,526.24c-23.1,5-46.32,9.25-69.64,13.12-7.08,1.18-14.47.91-21.22,4-2.44-2.74-3-6-3-9.56q.09-138.86.05-277.7c0-10.11,6.57-16.76,16.54-16.78q25.73-.06,51.44-.16h46c2,.06,4,.16,6,.16h220c2,0,4-.1,6-.16Z"/><path class="cls-2" d="M234.16,275.3h59.57A54.31,54.31,0,0,1,348,329.61v2.75a0,0,0,0,1,0,0H288.47a54.31,54.31,0,0,1-54.31-54.31V275.3A0,0,0,0,1,234.16,275.3Z" transform="translate(582.21 607.66) rotate(-180)"/><path class="cls-2" d="M288.47,338.47H348a0,0,0,0,1,0,0v2.75a54.31,54.31,0,0,1-54.31,54.31H234.16a0,0,0,0,1,0,0v-2.75a54.31,54.31,0,0,1,54.31-54.31Z"/><path class="cls-2" d="M234.16,401.64h59.57A54.31,54.31,0,0,1,348,455.95v2.75a0,0,0,0,1,0,0H288.47a54.31,54.31,0,0,1-54.31-54.31v-2.75A0,0,0,0,1,234.16,401.64Z" transform="translate(582.21 860.34) rotate(180)"/><path class="cls-2" d="M288.47,464.81H348a0,0,0,0,1,0,0v2.75a54.31,54.31,0,0,1-54.31,54.31H234.16a0,0,0,0,1,0,0v-2.75a54.31,54.31,0,0,1,54.31-54.31Z"/><path class="cls-2" d="M234.16,275.3h59.57A54.31,54.31,0,0,1,348,329.61v2.75a0,0,0,0,1,0,0H288.47a54.31,54.31,0,0,1-54.31-54.31V275.3A0,0,0,0,1,234.16,275.3Z" transform="translate(582.21 607.66) rotate(-180)"/><path class="cls-2" d="M171,338.47H230.6a0,0,0,0,1,0,0v2.75a54.31,54.31,0,0,1-54.31,54.31H116.72a0,0,0,0,1,0,0v-2.75A54.31,54.31,0,0,1,171,338.47Z"/><path class="cls-2" d="M116.72,401.64H176.3a54.31,54.31,0,0,1,54.31,54.31v2.75a0,0,0,0,1,0,0H171a54.31,54.31,0,0,1-54.31-54.31v-2.75A0,0,0,0,1,116.72,401.64Z" transform="translate(347.33 860.34) rotate(180)"/><path class="cls-2" d="M171,464.81H230.6a0,0,0,0,1,0,0v2.75a54.31,54.31,0,0,1-54.31,54.31H116.72a0,0,0,0,1,0,0v-2.75A54.31,54.31,0,0,1,171,464.81Z"/><path class="cls-2" d="M35.54,596.2a24.14,24.14,0,0,0-5.38-4.1,12.15,12.15,0,0,0-5.72-1.28,7.64,7.64,0,0,0-4.55,1.53,4.7,4.7,0,0,0-2.22,4q0,3.55,4.84,5.63t10.12,4.1a23,23,0,0,1,9.08,6.56q3.81,4.55,3.8,13.33,0,11.26-6.76,17.28t-17.13,6.07A33.5,33.5,0,0,1,10,647.29a28.08,28.08,0,0,1-10-6.22l9.28-13.23A14.18,14.18,0,0,0,21,633.47a10.61,10.61,0,0,0,5.58-1.63,5.11,5.11,0,0,0,2.61-4.64c0-2.41-1.62-4.31-4.88-5.73q-2.17-.93-5-2.12l-2.56-1-2.62-1.08a23.47,23.47,0,0,1-9-6.57q-3.77-4.35-3.76-13a20.5,20.5,0,0,1,3.26-11.55A21,21,0,0,1,13,578.62a24.31,24.31,0,0,1,11-2.56,28.71,28.71,0,0,1,10.66,2.07,29,29,0,0,1,9.33,6Z"/><path class="cls-2" d="M95.84,646.25c-1,.46-1.82.77-2.32.94a30.78,30.78,0,0,1-25.22-1.48A28,28,0,0,1,57.64,636,26.07,26.07,0,0,1,56,611.4a26.78,26.78,0,0,1,6.37-8.59,27.79,27.79,0,0,1,9.28-5.58,30.33,30.33,0,0,1,11-2,31.4,31.4,0,0,1,11,2,27.7,27.7,0,0,1,9.28,5.63,26.88,26.88,0,0,1,6.42,8.59,25.13,25.13,0,0,1,2.32,10.76l-.05,25.72-15.65-.15ZM71.21,615.79a11.76,11.76,0,0,0-1.82,6.37,12.14,12.14,0,0,0,3.94,9,13.31,13.31,0,0,0,18.52,0,12.14,12.14,0,0,0,3.94-9A11.76,11.76,0,0,0,94,615.79a13.61,13.61,0,0,0-4.89-4.64,13.45,13.45,0,0,0-13,0A13.61,13.61,0,0,0,71.21,615.79Z"/><path class="cls-2" d="M128.4,597.13q0-9.18,3.16-14.11a18.6,18.6,0,0,1,8.89-7.21,36.48,36.48,0,0,1,13.62-2.27l.1,14.61c-4,0-6.65.54-8,1.73s-2,3.67-2,7.25h6.17l3.51,13.53h-9.68v37H128.4v-37h-5.18l-3.55-13.53Z"/><path class="cls-2" d="M215.56,611.45a25.9,25.9,0,0,1,2.22,10.66v.45a3.74,3.74,0,0,1-.05.54l-.1.84h-6.12v.1h-34A12.78,12.78,0,0,0,190,635a12.14,12.14,0,0,0,8.88-3.75l.1-.1.15-.2.15-.15.1-.15,8.49,12.15a29.78,29.78,0,0,1-7.41,4.49,28.28,28.28,0,0,1-10.46,2,27.75,27.75,0,0,1-13.68-3.5A26.83,26.83,0,0,1,166.15,636a26.82,26.82,0,0,1-1.63-24.53,26.65,26.65,0,0,1,6.12-8.59,27.19,27.19,0,0,1,8.88-5.68,29,29,0,0,1,10.52-2,28.49,28.49,0,0,1,10.46,2,27.39,27.39,0,0,1,8.94,5.63A25.71,25.71,0,0,1,215.56,611.45Zm-25.52-2a12.22,12.22,0,0,0-6.22,1.67,14.84,14.84,0,0,0-3.46,3.06h19.35a15,15,0,0,0-3.45-3.06A12.25,12.25,0,0,0,190,609.48Z"/><path class="cls-2" d="M229.61,577.68h20.58a55.08,55.08,0,0,1,14.22,1.73,21.73,21.73,0,0,1,10.32,5.83q3.9,4.05,3.9,10.81a15.44,15.44,0,0,1-9.53,14.66V611a18.65,18.65,0,0,1,4.69,2.66,19.1,19.1,0,0,1,3.7,3.9,18.3,18.3,0,0,1,2.42,4.89,19.88,19.88,0,0,1,.84,5.82,17.32,17.32,0,0,1-6.52,14.12q-6.56,5.39-19.84,5.38H229.61Zm18,13.73v14.17h4.54c2.8,0,4.9-.65,6.32-1.93a6.66,6.66,0,0,0,2.12-5.33,5.75,5.75,0,0,0-2.67-5.33,12.44,12.44,0,0,0-6.41-1.58Zm0,27.94V634h4.79q10.31,0,10.31-7.16,0-4.49-2.76-6t-7.8-1.48Z"/><path class="cls-2" d="M331.08,646.25c-1.05.46-1.83.77-2.32.94a30.78,30.78,0,0,1-25.22-1.48A28.11,28.11,0,0,1,292.87,636a26.07,26.07,0,0,1-1.68-24.63,26.93,26.93,0,0,1,6.37-8.59,27.88,27.88,0,0,1,9.28-5.58,30.37,30.37,0,0,1,11-2,31.45,31.45,0,0,1,11,2,27.7,27.7,0,0,1,9.28,5.63,27,27,0,0,1,6.42,8.59,25.13,25.13,0,0,1,2.32,10.76l0,25.72-15.65-.15Zm-24.63-30.46a11.77,11.77,0,0,0-1.83,6.37,12.15,12.15,0,0,0,3.95,9,13.3,13.3,0,0,0,18.51,0,12.11,12.11,0,0,0,3.95-9,11.85,11.85,0,0,0-1.82-6.37,13.61,13.61,0,0,0-4.89-4.64,13.45,13.45,0,0,0-13,0A13.61,13.61,0,0,0,306.45,615.79Z"/><path class="cls-2" d="M376.72,609.48q-6,.24-6,8.39v29.86H354.9V617.87q0-21.57,21.82-22.66h.89q21.83,1.08,21.82,22.66v29.86h-15.8V617.87q0-8.14-6-8.39Z"/><path class="cls-2" d="M407.55,647.73v-70l15.8-.05v38.71h.2l16.34-19.16H458.4L440.13,618.9l21.48,28.83h-19.7L423.35,623v24.78Z"/></g></g></svg>