<?xml version="1.0" standalone="no"?>
<!DOCTYPE svg PUBLIC "-//W3C//DTD SVG 20010904//EN"
 "http://www.w3.org/TR/2001/REC-SVG-20010904/DTD/svg10.dtd">
<svg version="1.0" xmlns="http://www.w3.org/2000/svg"
 width="1920.000000pt" height="1080.000000pt" viewBox="0 0 1920.000000 1080.000000"
 preserveAspectRatio="xMidYMid meet">

<g transform="translate(0.000000,1080.000000) scale(0.100000,-0.100000)"
fill="#000000" stroke="none">
<path d="M0 5400 l0 -5400 9600 0 9600 0 0 5400 0 5400 -9600 0 -9600 0 0
-5400z m2660 4670 c518 -137 853 -608 809 -1135 -22 -256 -129 -487 -313 -671
-424 -424 -1112 -418 -1527 13 -100 103 -135 152 -194 271 -171 341 -146 750
64 1069 140 212 367 378 605 443 127 35 162 39 321 36 116 -3 170 -9 235 -26z
m14161 -733 c189 -100 115 -387 -100 -387 -214 0 -283 289 -93 390 53 28 137
26 193 -3z m-7125 3 c327 -34 600 -276 684 -604 17 -69 20 -111 20 -323 l0
-243 -109 0 -109 0 -4 243 c-4 236 -5 244 -32 317 -88 232 -274 373 -511 387
-114 7 -184 -7 -287 -59 -148 -74 -265 -221 -303 -379 -11 -47 -15 -124 -15
-286 l0 -223 -116 0 -116 0 5 248 c4 210 8 259 26 327 85 319 349 552 672 594
90 12 93 12 195 1z m7120 -885 c169 -84 143 -327 -41 -380 -50 -15 -60 -15
-109 -1 -42 12 -64 27 -95 62 -153 174 38 422 245 319z m-10399 -309 c28 -29
57 -57 63 -61 7 -5 36 17 76 56 35 34 67 60 71 56 4 -4 -22 -37 -57 -72 l-64
-64 20 -23 c10 -12 39 -41 63 -64 26 -26 40 -47 36 -54 -5 -8 -30 10 -74 54
l-67 66 -64 -64 c-35 -36 -68 -62 -73 -59 -5 3 21 35 57 72 l66 67 -64 64
c-58 56 -72 80 -47 80 4 0 30 -24 58 -54z m3623 -180 c81 -43 128 -112 137
-202 l6 -54 -199 0 -199 0 -52 30 c-72 41 -113 111 -113 193 l0 59 193 -4
c164 -3 197 -6 227 -22z m-7388 -758 c-18 -18 -556 520 -540 540 9 11 65 -40
282 -257 216 -216 268 -273 258 -283z m6948 440 c-1 -93 -47 -175 -123 -218
l-52 -30 -192 0 -193 0 0 45 c0 86 54 169 135 206 35 16 66 19 233 19 l192 0
0 -22z m575 -30 c-4 -29 -11 -63 -16 -76 -18 -47 -65 -96 -114 -118 -47 -22
-62 -24 -237 -24 l-188 0 0 48 c0 56 26 116 66 156 59 59 89 66 302 66 l194 0
-7 -52z m6608 -49 c111 -31 177 -168 132 -277 -67 -159 -295 -171 -373 -20
-86 167 61 347 241 297z m-10213 -134 l-64 -65 64 -65 c35 -35 61 -68 57 -72
-4 -4 -37 22 -72 57 l-65 64 -63 -62 c-34 -34 -66 -62 -70 -62 -18 0 -2 24 53
81 l61 62 -62 63 c-35 35 -60 67 -56 71 4 4 36 -22 71 -56 l64 -64 63 66 c42
44 67 63 73 57 7 -7 -12 -32 -54 -75z m580 20 c41 41 68 61 74 55 6 -6 -13
-31 -52 -69 -34 -33 -62 -64 -62 -68 0 -5 27 -35 60 -68 41 -40 57 -62 50 -69
-7 -7 -26 5 -58 39 -81 85 -72 84 -142 16 -58 -57 -80 -72 -80 -53 0 4 29 36
64 71 l64 63 -65 64 c-37 37 -62 68 -58 75 5 7 32 -14 74 -55 l67 -66 64 65z
m2316 -120 c80 -41 133 -131 134 -229 l0 -28 -192 4 c-175 3 -197 6 -235 26
-82 43 -132 120 -133 205 l0 47 188 0 c181 0 190 -1 238 -25z m570 6 c79 -36
132 -113 141 -208 l6 -55 -194 4 c-175 3 -198 6 -234 25 -87 47 -134 119 -135
206 l0 47 188 0 c160 0 193 -3 228 -19z m-7642 -280 c172 -172 264 -271 256
-276 -6 -4 -14 -4 -18 -1 -4 3 -125 124 -269 268 -231 230 -273 278 -245 278
4 0 128 -121 276 -269z m7202 -63 c-13 -98 -53 -159 -131 -201 -36 -20 -58
-22 -232 -25 l-193 -4 0 43 c0 97 49 175 134 215 48 22 62 24 240 24 l189 0
-7 -52z m580 -4 c-11 -92 -55 -157 -136 -200 -30 -16 -63 -19 -227 -22 l-193
-4 0 52 c0 94 46 164 135 206 47 22 61 24 239 24 l189 0 -7 -56z m-7524 -636
c-18 -18 -556 520 -540 540 9 11 65 -40 282 -257 216 -216 268 -273 258 -283z
m3775 410 l63 -62 65 64 c35 35 68 61 72 57 4 -4 -22 -37 -57 -72 l-64 -65 62
-63 c34 -34 62 -66 62 -70 0 -18 -25 -2 -82 53 l-62 60 -61 -60 c-33 -33 -67
-60 -75 -60 -8 0 16 31 54 69 l68 68 -61 61 c-56 56 -73 82 -54 82 4 0 36 -28
70 -62z m10374 -161 c21 -14 41 -41 53 -70 20 -47 20 -47 0 -94 -26 -62 -70
-93 -135 -93 -37 0 -55 6 -79 26 -76 65 -80 156 -8 220 29 27 44 32 94 33 27
1 52 -7 75 -22z m-14407 -396 c179 -179 264 -271 256 -276 -8 -5 -105 85 -281
261 -237 237 -279 284 -251 284 4 0 128 -121 276 -269z m258 -703 c-18 -18
-556 520 -540 540 9 11 65 -40 282 -257 216 -216 268 -273 258 -283z m5798
318 c0 -112 -2 -116 -57 -116 -38 0 -83 -51 -83 -94 0 -36 0 -36 45 -36 49 0
42 11 76 -122 5 -24 12 -51 15 -60 5 -16 -3 -18 -65 -18 l-71 0 0 -275 0 -275
-115 0 -115 0 0 274 0 275 -42 3 -42 3 -22 80 c-33 119 -35 115 41 115 l65 0
0 48 c0 107 49 197 135 247 44 26 144 53 203 54 l32 1 0 -104z m-1747 21 c40
-20 81 -45 91 -56 18 -20 17 -22 -39 -103 -32 -46 -59 -85 -61 -87 -3 -3 -13
3 -71 45 -56 40 -132 37 -180 -8 -58 -54 -14 -108 138 -168 97 -38 123 -53
171 -100 70 -68 82 -106 76 -245 -3 -88 -7 -107 -33 -154 -93 -169 -340 -220
-545 -110 -101 54 -100 51 -21 162 68 97 68 97 87 76 73 -81 242 -77 274 6 21
56 -11 89 -135 140 -161 67 -205 98 -248 179 -32 61 -31 211 1 281 37 81 99
135 193 169 32 12 69 15 137 13 82 -4 101 -8 165 -40z m3377 1 c152 -39 230
-124 229 -248 0 -94 -26 -145 -101 -200 -37 -27 -37 -27 -14 -38 40 -18 96
-73 118 -116 30 -58 36 -172 13 -233 -25 -64 -89 -125 -161 -154 -56 -22 -74
-24 -321 -27 l-263 -3 0 522 0 522 223 -6 c141 -3 242 -10 277 -19z m2392
-267 l3 -290 60 71 c33 40 88 105 123 145 l63 73 136 0 135 0 -19 -24 c-10
-13 -71 -86 -135 -162 l-117 -138 37 -51 c20 -27 89 -121 154 -208 65 -86 118
-160 118 -162 0 -3 -64 -5 -143 -5 l-143 0 -134 180 -135 181 -3 -181 -2 -180
-115 0 -115 0 0 520 0 520 115 0 115 0 2 -289z m4352 206 c155 -85 130 -321
-39 -377 -84 -28 -194 13 -239 89 -107 184 93 391 278 288z m-14430 -426 c179
-179 264 -271 256 -276 -8 -5 -105 85 -281 261 -237 237 -279 284 -251 284 4
0 128 -121 276 -269z m5066 238 c141 -22 260 -106 321 -226 l34 -67 3 -238 4
-238 -116 0 c-64 0 -116 4 -116 9 0 5 -26 0 -57 -11 -87 -30 -245 -23 -327 15
-166 77 -256 223 -243 395 15 202 186 354 417 371 8 0 44 -4 80 -10z m1677
-19 c148 -51 250 -181 261 -332 l5 -68 -297 0 c-325 0 -313 2 -282 -59 22 -42
81 -89 128 -102 48 -12 104 -1 150 32 14 11 28 19 31 19 12 0 118 -163 114
-174 -3 -7 -33 -28 -68 -47 -63 -33 -66 -34 -184 -34 -115 0 -123 1 -185 32
-83 41 -152 110 -193 192 -29 60 -32 73 -32 166 0 93 2 105 33 167 94 192 312
279 519 208z m1898 5 c66 -18 162 -81 202 -131 79 -101 93 -164 93 -426 l0
-200 -132 3 c-86 2 -149 -2 -178 -10 -28 -8 -82 -12 -145 -9 -87 3 -109 8
-167 35 -90 42 -160 110 -201 192 -30 61 -32 73 -32 166 0 89 3 107 28 160 89
191 308 281 532 220z m808 15 c116 -17 189 -66 238 -160 23 -44 24 -53 27
-327 l3 -283 -115 0 -116 0 0 240 c0 269 -5 297 -59 320 -42 17 -87 4 -115
-33 -20 -27 -21 -43 -24 -278 l-3 -249 -115 0 -114 0 0 239 c0 131 5 262 10
291 26 139 106 215 251 239 30 5 56 9 59 10 3 0 36 -4 73 -9z m-9191 -942
c-18 -18 -556 520 -540 540 9 11 65 -40 282 -257 216 -216 268 -273 258 -283z
m15201 -385 c3 -5 -33 -65 -79 -136 l-84 -128 86 -131 c47 -72 83 -136 80
-143 -2 -7 -39 -66 -82 -131 -42 -65 -77 -123 -77 -129 0 -5 35 -63 77 -128
42 -64 79 -123 82 -131 3 -7 -33 -72 -80 -144 l-86 -131 85 -130 c47 -71 85
-133 85 -137 0 -4 -39 -67 -86 -140 -58 -89 -91 -131 -100 -127 -16 6 -9 19
92 172 l62 93 -36 57 c-19 31 -57 88 -84 128 -26 40 -48 77 -48 83 0 5 38 68
84 139 l84 128 -84 129 c-46 71 -84 134 -84 139 0 6 38 68 84 139 l83 129 -83
128 c-46 70 -84 132 -84 138 0 15 170 271 180 271 5 0 11 -3 13 -7z m-8203
-478 l0 -105 45 0 c47 0 48 -1 39 -37 -6 -21 -12 -23 -75 -23 l-69 0 0 135 0
135 30 0 30 0 0 -105z m401 66 c36 -36 39 -43 39 -96 0 -53 -3 -60 -39 -96
-31 -31 -46 -39 -75 -39 -55 0 -95 25 -117 73 -23 52 -23 66 -2 118 19 49 63
79 117 79 31 0 45 -7 77 -39z m341 23 l31 -16 -20 -20 c-17 -16 -24 -18 -41
-9 -31 17 -51 13 -77 -14 -18 -18 -25 -35 -25 -65 0 -51 27 -80 75 -80 31 0
35 3 35 25 0 14 -9 34 -20 45 -31 31 -24 40 30 40 l50 0 0 -69 c0 -68 0 -69
-31 -80 -80 -28 -150 -4 -180 62 -23 52 -23 66 -2 118 28 71 106 99 175 63z
m248 -119 l0 -135 -30 0 -30 0 0 135 0 135 30 0 30 0 0 -135z m244 57 c27 -23
53 -42 57 -42 5 0 9 27 9 60 0 57 1 60 25 60 l25 0 0 -131 0 -131 -75 67 -75
67 0 -71 0 -71 -30 0 -30 0 0 137 0 136 23 -19 c12 -11 44 -39 71 -62z m1409
-52 c7 -6 -193 -130 -209 -130 -2 0 -4 58 -4 130 l0 129 103 -60 c56 -33 106
-64 110 -69z m475 50 c51 -29 91 -54 90 -55 -10 -8 -218 -125 -222 -125 -4 0
-6 59 -6 131 l0 131 23 -14 c12 -9 64 -39 115 -68z m1660 0 l93 -53 -103 -59
c-57 -33 -109 -63 -115 -65 -10 -4 -13 25 -13 127 l0 132 23 -14 c12 -9 64
-39 115 -68z m550 3 c50 -30 92 -56 92 -58 0 -4 -215 -125 -223 -125 -4 0 -7
59 -7 130 l0 131 23 -12 c12 -7 64 -36 115 -66z m-3332 6 c58 -34 104 -63 102
-64 -6 -5 -163 -97 -190 -111 l-28 -15 0 126 c0 69 3 125 6 125 3 0 53 -28
110 -61z m1660 0 c58 -34 104 -63 102 -64 -3 -3 -172 -101 -200 -116 -17 -9
-18 -1 -18 116 0 69 3 125 6 125 3 0 53 -28 110 -61z m545 5 c55 -31 101 -60
104 -64 4 -6 -161 -108 -207 -128 -5 -2 -8 53 -8 122 0 69 3 126 6 126 3 0 51
-25 105 -56z m-7841 -1559 l0 -175 -175 0 -175 0 0 175 0 175 175 0 175 0 0
-175z m550 0 l0 -175 -175 0 -175 0 0 175 0 175 175 0 175 0 0 -175z m550 0
l0 -175 -175 0 -175 0 0 175 0 175 175 0 175 0 0 -175z m550 0 l0 -175 -175 0
-175 0 0 175 0 175 175 0 175 0 0 -175z m550 0 l0 -175 -170 0 -170 0 0 175 0
175 170 0 170 0 0 -175z"/>
<path d="M2224 10055 c-157 -28 -265 -71 -397 -158 -110 -73 -184 -141 -257
-239 -198 -262 -264 -595 -180 -908 31 -113 119 -281 200 -382 135 -166 344
-300 555 -355 128 -33 343 -37 470 -9 239 53 469 200 617 395 65 86 151 264
180 371 19 71 22 111 23 250 0 181 -11 248 -67 390 -91 231 -282 437 -513 553
-188 94 -428 129 -631 92z"/>
<path d="M16676 9300 c-40 -12 -83 -56 -97 -98 -25 -76 17 -157 96 -188 61
-23 109 -9 159 46 31 35 36 47 36 91 0 30 -7 63 -17 81 -33 55 -115 87 -177
68z"/>
<path d="M16641 8398 c-87 -60 -93 -173 -12 -241 64 -53 144 -44 205 24 32 35
36 45 36 94 0 51 -3 59 -39 97 -35 38 -43 42 -97 46 -50 3 -64 0 -93 -20z"/>
<path d="M16643 7499 c-17 -11 -42 -40 -54 -65 -35 -74 -14 -140 62 -192 64
-44 167 -13 206 61 67 130 -91 275 -214 196z"/>
<path d="M9850 5561 l0 -111 53 0 c72 0 118 26 136 77 12 33 12 43 0 68 -22
45 -59 66 -127 72 l-62 6 0 -112z"/>
<path d="M9850 5141 l0 -111 65 0 c85 0 130 19 152 64 13 28 14 44 7 72 -14
57 -49 76 -144 82 l-80 5 0 -112z"/>
<path d="M16650 5738 c-74 -51 -95 -116 -62 -191 25 -57 70 -87 130 -87 54 0
93 20 127 65 94 122 -69 299 -195 213z"/>
<path d="M7326 5386 c-71 -27 -135 -111 -136 -179 0 -73 64 -157 142 -183 92
-30 197 18 239 111 25 55 24 92 -7 153 -43 87 -149 131 -238 98z"/>
<path d="M8925 5381 c-44 -22 -75 -45 -75 -55 0 -3 63 -6 140 -6 85 0 140 4
140 10 0 19 -76 60 -120 65 -33 4 -56 0 -85 -14z"/>
<path d="M10839 5386 c-84 -30 -139 -101 -139 -181 0 -120 126 -215 242 -185
78 21 139 83 153 156 15 81 -47 179 -132 208 -55 19 -76 19 -124 2z"/>
<path d="M9925 3825 c-32 -31 -34 -91 -5 -123 59 -64 151 22 108 101 -27 51
-66 60 -103 22z"/>
<path d="M5677 2433 c-4 -3 -7 -78 -7 -165 l0 -158 160 0 160 0 0 165 0 165
-153 0 c-85 0 -157 -3 -160 -7z"/>
<path d="M6227 2434 c-4 -4 -7 -79 -7 -166 l0 -158 163 2 162 3 0 160 0 160
-156 3 c-85 1 -158 -1 -162 -4z"/>
<path d="M6775 2427 c-3 -7 -4 -80 -3 -162 l3 -150 163 -3 162 -2 -2 162 -3
163 -158 3 c-123 2 -159 0 -162 -11z"/>
<path d="M7330 2275 l0 -165 160 0 160 0 -2 163 -3 162 -157 3 -158 3 0 -166z"/>
<path d="M7880 2275 l0 -165 160 0 160 0 0 165 0 165 -160 0 -160 0 0 -165z"/>
</g>
</svg>
